<svg id="svg" version="1.1" xmlns="http://www.w3.org/2000/svg" xmlns:xlink="http://www.w3.org/1999/xlink" width="400" height="402.8490028490029" viewBox="0, 0, 400,402.8490028490029"><g id="svgg"><path id="path0" d="M150.652 55.410 C 150.488 55.837,150.116 55.944,149.409 55.766 C 148.757 55.603,148.400 55.680,148.400 55.986 C 148.400 56.246,148.087 56.398,147.705 56.325 C 147.322 56.251,146.675 56.525,146.268 56.932 C 145.846 57.354,145.197 57.588,144.763 57.474 C 144.343 57.365,144.000 57.438,144.000 57.637 C 144.000 57.837,143.773 58.000,143.495 58.000 C 143.217 58.000,142.812 58.405,142.595 58.900 C 142.368 59.416,141.847 59.800,141.372 59.800 C 140.363 59.800,137.804 62.232,138.415 62.609 C 139.021 62.984,138.097 64.000,137.151 64.000 C 136.428 64.000,136.204 64.573,136.332 66.100 C 136.364 66.485,136.213 66.800,135.995 66.800 C 135.778 66.800,135.600 67.070,135.600 67.400 C 135.600 67.730,135.408 68.000,135.173 68.000 C 134.928 68.000,134.854 68.341,135.000 68.800 C 135.180 69.368,135.072 69.600,134.627 69.600 C 133.890 69.600,133.801 70.441,134.467 71.107 C 134.823 71.463,134.775 71.635,134.267 71.830 C 133.294 72.203,133.227 330.400,134.200 330.400 C 134.530 330.400,134.800 330.580,134.800 330.800 C 134.800 331.020,134.620 331.200,134.400 331.200 C 134.180 331.200,134.000 331.560,134.000 332.000 C 134.000 332.440,134.225 332.755,134.500 332.700 C 134.775 332.645,134.971 332.940,134.935 333.355 C 134.900 333.770,135.215 334.479,135.636 334.930 C 136.056 335.382,136.379 335.942,136.353 336.176 C 136.222 337.343,136.512 337.861,137.665 338.517 C 138.538 339.014,138.797 339.363,138.509 339.651 C 137.975 340.185,140.569 342.864,141.336 342.569 C 141.631 342.456,142.103 342.642,142.385 342.982 C 142.667 343.322,143.146 343.600,143.449 343.600 C 143.752 343.600,143.955 343.825,143.900 344.100 C 143.845 344.375,144.070 344.626,144.400 344.658 C 145.554 344.769,146.800 345.296,146.800 345.674 C 146.800 345.883,147.160 345.940,147.600 345.800 C 148.179 345.616,148.400 345.728,148.400 346.205 C 148.400 346.729,148.646 346.810,149.600 346.600 C 150.355 346.434,150.800 346.497,150.800 346.768 C 150.800 347.076,179.663 347.200,251.400 347.200 C 316.480 347.200,352.000 347.062,352.000 346.810 C 352.000 346.596,352.504 346.521,353.121 346.644 C 354.001 346.820,354.526 346.604,355.562 345.636 C 356.288 344.958,357.043 344.503,357.241 344.625 C 357.438 344.747,357.600 344.657,357.600 344.424 C 357.600 344.191,357.848 344.000,358.151 344.000 C 358.454 344.000,358.928 343.728,359.204 343.395 C 359.481 343.062,359.908 342.813,360.153 342.842 C 361.162 342.961,361.600 342.768,361.600 342.205 C 361.600 341.355,362.857 340.000,363.646 340.000 C 364.376 340.000,364.947 338.961,364.561 338.337 C 364.428 338.122,364.698 337.847,365.160 337.726 C 365.622 337.606,366.000 337.273,366.000 336.987 C 366.000 336.701,366.216 336.395,366.480 336.307 C 366.744 336.219,366.960 335.484,366.960 334.673 C 366.960 333.731,367.147 333.200,367.480 333.200 C 368.131 333.200,368.148 332.708,367.520 332.080 C 367.147 331.707,367.203 331.600,367.772 331.600 C 368.381 331.600,368.468 331.372,368.285 330.247 C 368.164 329.503,368.233 328.727,368.437 328.523 C 368.664 328.296,368.768 308.644,368.705 278.327 C 368.629 242.539,368.724 228.387,369.039 228.092 C 369.281 227.867,369.821 227.615,370.239 227.534 C 370.731 227.438,371.000 227.050,371.000 226.439 C 371.000 225.917,371.352 225.292,371.783 225.046 C 372.883 224.420,373.393 223.881,373.440 223.300 C 373.533 222.143,373.638 222.000,374.395 222.000 C 374.982 222.000,375.166 221.764,375.095 221.100 C 375.024 220.424,375.325 220.057,376.304 219.626 C 377.177 219.242,377.543 218.846,377.413 218.426 C 377.153 217.591,377.621 216.926,378.600 216.741 C 379.081 216.650,379.400 216.272,379.400 215.795 C 379.400 214.826,380.123 214.000,380.971 214.000 C 381.577 214.000,381.768 213.563,381.629 212.497 C 381.593 212.220,382.040 211.813,382.622 211.591 C 383.346 211.316,383.605 210.991,383.442 210.565 C 383.162 209.835,383.929 208.950,385.028 208.736 C 385.531 208.638,385.800 208.255,385.800 207.639 C 385.800 207.117,386.152 206.492,386.583 206.246 C 387.683 205.620,388.193 205.081,388.240 204.500 C 388.333 203.343,388.438 203.200,389.195 203.200 C 389.782 203.200,389.966 202.964,389.895 202.300 C 389.824 201.624,390.125 201.257,391.104 200.826 C 391.977 200.442,392.343 200.046,392.213 199.626 C 391.953 198.791,392.421 198.126,393.400 197.941 C 393.881 197.850,394.200 197.472,394.200 196.995 C 394.200 196.026,394.923 195.200,395.771 195.200 C 396.377 195.200,396.568 194.763,396.429 193.697 C 396.393 193.420,396.840 193.013,397.422 192.791 C 398.146 192.516,398.405 192.191,398.242 191.765 C 397.992 191.113,398.831 190.000,399.571 190.000 C 399.869 190.000,400.000 185.284,400.000 174.600 C 400.000 164.722,399.858 159.200,399.605 159.200 C 399.387 159.200,399.252 159.603,399.305 160.094 C 399.368 160.693,399.102 161.121,398.500 161.389 C 398.005 161.610,397.600 161.927,397.600 162.095 C 397.600 162.857,396.389 162.289,395.904 161.300 C 395.534 160.548,395.094 160.228,394.511 160.290 C 393.913 160.353,393.508 160.042,393.156 159.247 C 392.817 158.480,392.432 158.171,391.967 158.293 C 391.507 158.413,391.094 158.095,390.722 157.336 C 390.390 156.658,389.876 156.225,389.447 156.262 C 389.013 156.299,388.406 155.778,387.917 154.949 C 387.326 153.947,386.910 153.638,386.381 153.806 C 385.835 153.979,385.487 153.682,384.977 152.607 C 384.457 151.512,384.124 151.234,383.549 151.416 C 382.982 151.596,382.800 151.453,382.800 150.827 C 382.800 150.372,382.575 149.981,382.300 149.957 C 382.025 149.934,381.440 149.889,381.000 149.857 C 379.886 149.777,379.627 148.000,380.729 148.000 C 381.602 148.000,382.098 147.121,381.745 146.200 C 381.585 145.784,381.772 145.600,382.357 145.600 C 382.821 145.600,383.227 145.375,383.261 145.100 C 383.294 144.825,383.344 144.420,383.371 144.200 C 383.473 143.385,384.069 142.800,384.797 142.800 C 385.209 142.800,385.664 142.430,385.807 141.977 C 386.127 140.971,387.332 141.102,387.536 142.165 C 387.746 143.254,388.472 143.906,389.249 143.703 C 389.690 143.588,390.113 143.918,390.479 144.664 C 390.859 145.439,391.303 145.772,391.875 145.712 C 392.470 145.650,392.856 145.971,393.208 146.819 C 393.563 147.677,393.837 147.901,394.181 147.616 C 394.777 147.121,395.600 147.854,395.600 148.880 C 395.600 149.559,395.785 149.663,397.168 149.763 C 397.481 149.785,398.029 150.330,398.386 150.974 C 399.893 153.694,400.000 152.997,400.000 140.466 C 400.000 128.104,399.902 126.852,398.989 127.609 C 398.450 128.057,398.282 127.910,397.377 126.200 C 397.144 125.760,396.635 125.427,396.247 125.461 C 395.855 125.494,395.229 125.009,394.840 124.370 C 394.341 123.549,394.017 123.343,393.710 123.650 C 393.403 123.957,393.200 123.830,393.002 123.206 C 392.785 122.521,392.516 122.384,391.762 122.574 C 391.077 122.746,390.800 122.648,390.800 122.235 C 390.800 121.452,389.431 121.068,387.760 121.381 C 386.724 121.575,386.332 121.487,386.152 121.019 C 385.842 120.212,384.800 120.217,384.800 121.025 C 384.800 121.538,384.480 121.601,383.000 121.379 C 381.730 121.189,381.200 121.248,381.200 121.582 C 381.200 121.872,380.892 121.956,380.400 121.800 C 379.817 121.615,379.600 121.728,379.600 122.216 C 379.600 122.647,379.386 122.804,379.000 122.655 C 378.670 122.529,378.400 122.612,378.400 122.840 C 378.400 123.067,378.054 123.144,377.630 123.010 C 377.041 122.823,376.830 122.981,376.730 123.683 C 376.641 124.311,376.340 124.592,375.774 124.576 C 374.781 124.548,374.200 125.130,374.200 126.153 C 374.200 126.595,373.654 127.198,372.877 127.615 C 372.086 128.039,371.732 128.434,371.996 128.598 C 372.622 128.984,371.719 130.000,370.751 130.000 C 370.016 130.000,369.924 130.181,369.841 131.793 C 369.818 132.228,369.530 132.638,369.200 132.703 C 368.678 132.806,368.616 131.671,368.722 124.011 C 368.809 117.695,368.716 115.200,368.395 115.200 C 368.138 115.200,368.048 114.879,368.185 114.447 C 368.338 113.964,368.195 113.607,367.787 113.450 C 367.436 113.316,367.261 113.024,367.398 112.803 C 367.535 112.581,367.437 112.400,367.181 112.400 C 366.924 112.400,366.814 112.142,366.935 111.826 C 367.056 111.510,366.973 111.191,366.750 111.117 C 365.983 110.861,312.813 57.471,312.573 56.715 C 312.396 56.156,312.200 56.068,311.825 56.379 C 311.453 56.688,311.030 56.534,310.238 55.800 L 309.159 54.800 230.022 54.800 C 159.481 54.800,150.860 54.866,150.652 55.410 M325.983 97.183 L 349.577 120.763 349.614 139.081 C 349.645 154.814,349.568 157.417,349.068 157.521 C 348.718 157.594,348.563 157.938,348.680 158.385 C 348.824 158.935,348.500 159.305,347.429 159.813 C 346.289 160.354,346.079 160.613,346.432 161.039 C 346.785 161.464,346.567 161.764,345.418 162.442 C 344.478 162.997,344.034 163.512,344.176 163.883 C 344.447 164.587,343.505 165.600,342.580 165.600 C 342.042 165.600,341.999 165.716,342.370 166.164 C 342.864 166.760,342.754 166.893,341.000 167.825 C 340.543 168.067,340.236 168.596,340.284 169.058 C 340.343 169.631,339.955 170.064,338.958 170.539 C 337.891 171.048,337.606 171.390,337.784 171.949 C 338.008 172.654,337.453 173.436,336.600 173.617 C 335.521 173.846,335.194 174.152,335.385 174.754 C 335.520 175.178,335.275 175.553,334.697 175.806 C 334.090 176.073,333.839 176.482,333.920 177.072 C 334.012 177.733,333.696 178.107,332.612 178.621 C 331.486 179.155,331.279 179.413,331.632 179.839 C 331.985 180.264,331.767 180.564,330.618 181.242 C 329.678 181.797,329.234 182.312,329.376 182.683 C 329.647 183.387,328.705 184.400,327.780 184.400 C 327.242 184.400,327.199 184.516,327.570 184.964 C 328.064 185.560,327.954 185.693,326.200 186.625 C 325.743 186.867,325.436 187.396,325.484 187.858 C 325.542 188.428,325.159 188.862,324.187 189.326 C 323.157 189.817,322.831 190.208,322.903 190.867 C 322.963 191.415,322.693 191.912,322.191 192.175 C 321.730 192.418,321.442 192.902,321.521 193.304 C 321.622 193.817,321.326 194.075,320.430 194.254 C 319.217 194.497,319.043 194.748,319.174 196.072 C 319.215 196.479,318.700 197.000,317.864 197.396 C 316.858 197.874,316.540 198.248,316.680 198.785 C 316.815 199.302,316.533 199.688,315.736 200.078 C 315.034 200.421,314.625 200.919,314.666 201.380 C 314.743 202.253,313.911 203.200,313.066 203.200 C 312.682 203.200,312.545 203.467,312.674 203.961 C 312.816 204.506,312.551 204.879,311.736 205.279 C 310.976 205.652,310.628 206.107,310.684 206.652 C 310.743 207.229,310.363 207.660,309.387 208.126 C 308.343 208.624,308.030 209.005,308.103 209.692 C 308.176 210.377,307.880 210.741,306.896 211.174 C 305.923 211.602,305.651 211.931,305.823 212.474 C 305.995 213.016,305.844 213.200,305.227 213.200 C 304.414 213.200,304.242 213.537,304.374 214.872 C 304.415 215.279,303.900 215.800,303.064 216.196 C 302.058 216.674,301.740 217.048,301.880 217.585 C 302.015 218.102,301.733 218.488,300.936 218.878 C 300.234 219.221,299.825 219.719,299.866 220.180 C 299.943 221.053,299.111 222.000,298.266 222.000 C 297.882 222.000,297.745 222.267,297.874 222.761 C 298.016 223.306,297.751 223.679,296.936 224.079 C 296.176 224.452,295.828 224.907,295.884 225.452 C 295.943 226.029,295.563 226.460,294.587 226.926 C 293.546 227.422,293.230 227.806,293.303 228.486 C 293.369 229.095,293.106 229.520,292.495 229.792 C 291.996 230.013,291.667 230.399,291.763 230.648 C 291.998 231.260,291.207 232.000,290.320 232.000 C 289.608 232.000,289.445 232.365,289.574 233.672 C 289.615 234.079,289.100 234.600,288.264 234.996 C 287.258 235.474,286.940 235.848,287.080 236.385 C 287.215 236.902,286.933 237.288,286.136 237.678 C 285.434 238.021,285.025 238.519,285.066 238.980 C 285.142 239.840,284.314 240.800,283.497 240.800 C 283.175 240.800,282.950 241.178,282.968 241.688 C 282.989 242.270,282.725 242.630,282.200 242.734 C 281.221 242.928,280.754 243.592,281.012 244.424 C 281.142 244.844,280.737 245.272,279.778 245.730 C 278.674 246.257,278.404 246.584,278.591 247.172 C 278.823 247.903,278.256 248.580,277.400 248.595 C 277.180 248.599,277.000 248.956,276.999 249.390 C 276.999 249.828,276.555 250.401,275.999 250.681 C 275.450 250.959,275.050 251.445,275.111 251.762 C 275.171 252.080,274.856 252.455,274.411 252.597 C 273.535 252.875,273.312 254.175,274.061 254.637 C 274.381 254.836,274.304 255.081,273.806 255.445 C 273.260 255.844,273.145 256.304,273.320 257.384 C 273.462 258.262,273.388 258.800,273.124 258.800 C 272.854 258.800,272.769 259.532,272.890 260.800 C 273.043 262.386,272.960 262.800,272.490 262.800 C 272.021 262.800,271.938 263.214,272.090 264.800 C 272.203 265.971,272.120 266.800,271.890 266.800 C 271.661 266.800,271.578 267.629,271.690 268.800 C 271.835 270.309,271.750 270.800,271.341 270.800 C 270.651 270.800,270.620 272.858,271.300 273.547 C 271.701 273.953,271.651 274.164,271.052 274.606 C 270.429 275.066,270.349 275.466,270.576 276.980 C 270.770 278.274,270.711 278.800,270.372 278.800 C 270.043 278.800,269.960 279.365,270.102 280.630 C 270.259 282.022,270.165 282.515,269.711 282.690 C 269.242 282.870,269.168 283.338,269.370 284.860 C 269.550 286.216,269.487 286.800,269.162 286.800 C 268.835 286.800,268.776 287.394,268.962 288.800 C 269.189 290.506,269.130 290.800,268.561 290.800 C 268.014 290.800,267.933 291.088,268.109 292.400 C 268.227 293.280,268.161 294.000,267.962 294.000 C 267.763 294.000,267.600 295.260,267.600 296.800 C 267.600 298.518,267.765 299.600,268.027 299.600 C 268.272 299.600,268.346 299.941,268.200 300.400 C 268.017 300.977,268.128 301.200,268.600 301.200 C 269.072 301.200,269.183 301.423,269.000 302.000 C 268.838 302.509,268.928 302.800,269.247 302.800 C 269.942 302.800,271.600 304.419,271.600 305.097 C 271.600 305.472,271.861 305.571,272.400 305.400 C 272.977 305.217,273.200 305.328,273.200 305.800 C 273.200 306.272,273.423 306.383,274.000 306.200 C 274.459 306.054,274.800 306.128,274.800 306.373 C 274.800 306.628,275.766 306.800,277.200 306.800 C 278.700 306.800,279.600 306.633,279.600 306.353 C 279.600 306.092,279.960 306.001,280.470 306.134 C 281.049 306.285,281.571 306.095,282.032 305.564 C 282.529 304.990,283.005 304.836,283.724 305.017 C 284.519 305.216,284.781 305.090,285.000 304.400 C 285.220 303.707,285.479 303.583,286.286 303.786 C 287.039 303.975,287.444 303.830,287.872 303.218 C 288.285 302.629,288.714 302.464,289.391 302.633 C 290.096 302.810,290.451 302.651,290.798 302.004 C 291.091 301.456,291.491 301.226,291.887 301.378 C 292.778 301.720,294.000 301.250,294.000 300.565 C 294.000 300.150,294.277 300.054,294.973 300.229 C 295.659 300.401,296.144 300.241,296.619 299.686 C 296.990 299.253,297.605 298.981,297.987 299.081 C 298.368 299.180,298.964 298.979,299.311 298.632 C 299.657 298.286,300.229 298.113,300.582 298.249 C 300.972 298.398,301.515 298.159,301.964 297.642 C 302.425 297.110,302.953 296.884,303.364 297.042 C 303.776 297.200,304.305 296.970,304.774 296.430 C 305.343 295.774,305.780 295.630,306.586 295.832 C 307.459 296.051,307.690 295.943,307.876 295.229 C 308.064 294.513,308.302 294.403,309.224 294.605 C 310.100 294.798,310.441 294.670,310.788 294.022 C 311.117 293.407,311.478 293.254,312.183 293.432 C 312.893 293.610,313.249 293.455,313.587 292.824 C 313.836 292.358,314.221 292.090,314.443 292.226 C 315.103 292.634,316.800 292.031,316.800 291.389 C 316.800 290.890,316.939 290.875,317.652 291.297 C 318.333 291.699,318.541 291.699,318.686 291.300 C 318.785 291.025,319.122 290.800,319.433 290.800 C 319.745 290.800,320.000 290.428,320.000 289.973 C 320.000 289.369,320.189 289.205,320.700 289.364 C 321.583 289.639,322.875 288.850,322.071 288.526 C 321.414 288.263,323.028 286.400,323.913 286.400 C 324.270 286.400,324.395 286.163,324.244 285.770 C 323.962 285.035,324.726 284.151,325.828 283.936 C 326.331 283.838,326.600 283.455,326.600 282.839 C 326.600 282.317,326.952 281.692,327.383 281.446 C 328.483 280.820,328.993 280.281,329.040 279.700 C 329.133 278.543,329.238 278.400,329.995 278.400 C 330.582 278.400,330.766 278.164,330.695 277.500 C 330.624 276.824,330.925 276.457,331.904 276.026 C 332.777 275.642,333.143 275.246,333.013 274.826 C 332.753 273.991,333.221 273.327,334.200 273.139 C 334.679 273.047,335.000 272.667,335.000 272.193 C 335.000 271.062,335.526 270.400,336.424 270.400 C 336.851 270.400,337.221 270.175,337.246 269.900 C 337.272 269.625,337.317 269.130,337.346 268.800 C 337.376 268.470,337.807 268.021,338.305 267.803 C 338.814 267.580,339.121 267.172,339.007 266.873 C 338.757 266.223,339.582 265.340,340.628 265.136 C 341.131 265.038,341.400 264.655,341.400 264.039 C 341.400 263.517,341.752 262.892,342.183 262.646 C 343.283 262.020,343.793 261.481,343.840 260.900 C 343.933 259.743,344.038 259.600,344.795 259.600 C 345.371 259.600,345.564 259.364,345.495 258.745 C 345.430 258.157,345.774 257.679,346.598 257.214 C 347.257 256.841,347.815 256.281,347.837 255.968 C 347.937 254.577,348.045 254.400,348.796 254.400 C 349.852 254.400,350.283 326.890,349.233 328.000 C 348.676 328.589,154.411 328.793,152.875 328.206 C 152.586 328.096,152.461 327.824,152.598 327.603 C 152.735 327.381,152.657 327.200,152.424 327.200 C 152.126 327.200,152.000 289.614,152.000 201.200 C 152.000 120.188,152.138 75.200,152.387 75.200 C 152.601 75.200,152.688 74.974,152.582 74.697 C 152.101 73.444,154.821 73.401,228.295 73.502 L 302.389 73.604 325.983 97.183 M190.000 121.050 C 190.000 121.559,189.739 121.648,188.800 121.460 C 188.058 121.312,187.600 121.385,187.600 121.653 C 187.600 121.891,187.330 121.982,187.000 121.855 C 186.627 121.712,186.400 121.858,186.400 122.240 C 186.400 122.672,186.163 122.779,185.600 122.600 C 185.044 122.423,184.800 122.528,184.800 122.944 C 184.800 123.273,184.381 123.872,183.868 124.275 C 183.355 124.678,183.010 125.231,183.101 125.504 C 183.192 125.777,182.987 126.000,182.646 126.000 C 182.258 126.000,182.112 126.226,182.255 126.600 C 182.382 126.930,182.274 127.200,182.016 127.200 C 181.728 127.200,181.644 127.510,181.800 128.000 C 181.980 128.568,181.872 128.800,181.427 128.800 C 180.977 128.800,180.800 129.195,180.800 130.200 C 180.800 131.186,180.980 131.600,181.408 131.600 C 181.856 131.600,181.949 131.862,181.764 132.600 C 181.603 133.244,181.681 133.600,181.986 133.600 C 182.246 133.600,182.394 133.915,182.316 134.300 C 182.227 134.735,182.609 135.271,183.322 135.716 C 184.314 136.334,184.399 136.520,183.939 137.074 C 183.473 137.635,183.511 137.682,184.247 137.449 C 184.782 137.279,185.270 137.403,185.593 137.791 C 185.871 138.126,186.346 138.400,186.649 138.400 C 186.952 138.400,187.200 138.592,187.200 138.827 C 187.200 139.072,187.541 139.146,188.000 139.000 C 188.568 138.820,188.800 138.928,188.800 139.373 C 188.800 140.332,303.786 140.334,304.154 139.375 C 304.286 139.031,304.576 138.861,304.797 138.998 C 305.019 139.135,305.200 139.078,305.200 138.870 C 305.200 138.488,306.705 137.862,307.355 137.975 C 308.085 138.102,309.609 136.257,309.377 135.527 C 309.202 134.976,309.357 134.800,310.016 134.800 C 310.739 134.800,310.845 134.635,310.642 133.825 C 310.507 133.288,310.578 132.737,310.799 132.601 C 311.342 132.265,311.318 128.400,310.773 128.400 C 310.537 128.400,310.453 128.063,310.585 127.647 C 310.741 127.155,310.592 126.806,310.155 126.638 C 309.787 126.497,309.590 126.277,309.718 126.149 C 309.845 126.021,309.241 125.179,308.375 124.278 C 307.509 123.376,306.800 122.425,306.800 122.163 C 306.800 121.566,304.988 121.086,303.964 121.411 C 303.468 121.569,303.111 121.433,302.955 121.028 C 302.579 120.046,190.000 120.069,190.000 121.050 M188.800 162.627 C 188.800 163.072,188.568 163.180,188.000 163.000 C 187.507 162.844,187.200 162.928,187.200 163.220 C 187.200 163.501,186.866 163.606,186.378 163.478 C 185.778 163.321,185.462 163.510,185.208 164.179 C 185.016 164.683,184.351 165.477,183.730 165.943 C 181.570 167.565,181.506 167.664,181.732 169.056 C 181.894 170.059,181.804 170.400,181.375 170.400 C 180.985 170.400,180.800 170.849,180.800 171.800 C 180.800 172.667,180.994 173.200,181.309 173.200 C 181.640 173.200,181.818 173.785,181.818 174.870 C 181.818 175.988,182.013 176.604,182.409 176.734 C 182.734 176.841,183.565 177.491,184.255 178.179 C 184.945 178.867,185.687 179.371,185.904 179.299 C 186.121 179.226,186.401 179.559,186.526 180.038 C 186.717 180.769,186.950 180.870,187.977 180.665 C 188.899 180.480,189.200 180.565,189.200 181.010 C 189.200 181.951,302.600 181.899,302.961 180.958 C 303.136 180.500,303.494 180.387,304.204 180.565 C 304.827 180.722,305.200 180.645,305.200 180.361 C 305.200 180.110,305.543 179.996,305.965 180.107 C 306.490 180.244,306.795 180.062,306.934 179.529 C 307.046 179.101,307.377 178.783,307.669 178.823 C 308.894 178.989,309.248 178.783,309.013 178.042 C 308.875 177.607,309.034 177.023,309.386 176.671 C 309.724 176.333,310.000 175.864,310.000 175.629 C 310.000 175.393,310.192 175.200,310.427 175.200 C 310.672 175.200,310.746 174.859,310.600 174.400 C 310.454 173.941,310.528 173.600,310.773 173.600 C 311.536 173.600,311.265 170.015,310.412 168.817 C 309.978 168.208,309.738 167.595,309.878 167.455 C 310.019 167.315,309.904 167.200,309.624 167.200 C 309.315 167.200,309.214 166.940,309.367 166.542 C 309.667 165.759,308.540 164.371,307.827 164.645 C 307.552 164.750,307.097 164.558,306.815 164.218 C 306.533 163.878,306.054 163.600,305.751 163.600 C 305.448 163.600,305.200 163.408,305.200 163.173 C 305.200 162.928,304.859 162.854,304.400 163.000 C 303.832 163.180,303.600 163.072,303.600 162.627 C 303.600 162.061,298.052 162.000,246.200 162.000 C 194.348 162.000,188.800 162.061,188.800 162.627 M370.000 164.849 C 370.000 165.262,370.225 165.621,370.500 165.646 C 370.775 165.672,371.250 165.717,371.555 165.746 C 371.860 165.776,372.310 166.152,372.555 166.583 C 373.257 167.818,373.740 168.200,374.600 168.200 C 375.123 168.200,375.444 168.509,375.527 169.091 C 375.616 169.718,375.895 169.954,376.470 169.891 C 376.930 169.840,377.486 170.142,377.743 170.583 C 378.390 171.691,378.922 172.194,379.500 172.240 C 380.639 172.331,380.800 172.429,380.800 173.029 C 380.800 173.899,381.873 174.929,382.210 174.384 C 382.589 173.771,383.600 174.711,383.600 175.676 C 383.600 176.233,383.799 176.392,384.300 176.236 C 385.550 175.847,386.343 176.706,385.400 177.427 C 384.960 177.764,384.600 178.435,384.600 178.919 C 384.600 179.527,384.201 179.976,383.316 180.365 C 382.403 180.767,382.057 181.170,382.116 181.760 C 382.169 182.285,381.871 182.735,381.303 182.988 C 380.712 183.251,380.479 183.619,380.621 184.066 C 380.776 184.555,380.435 184.936,379.407 185.423 C 378.365 185.918,378.038 186.289,378.198 186.794 C 378.319 187.175,378.144 187.715,377.809 187.993 C 377.474 188.271,377.200 188.358,377.200 188.187 C 377.200 188.016,376.836 188.206,376.391 188.609 C 375.814 189.131,375.717 189.425,376.055 189.634 C 376.653 190.004,375.708 191.043,374.572 191.264 C 374.120 191.353,373.800 191.743,373.800 192.207 C 373.800 193.356,373.271 194.000,372.327 194.000 C 371.649 194.000,371.588 194.104,371.987 194.584 C 372.386 195.065,372.235 195.313,371.136 195.983 C 370.258 196.518,369.800 197.106,369.800 197.699 C 369.800 198.329,369.414 198.770,368.516 199.165 C 367.603 199.567,367.257 199.970,367.316 200.560 C 367.369 201.087,367.070 201.536,366.495 201.792 C 365.957 202.031,365.677 202.423,365.805 202.758 C 366.057 203.415,364.712 204.800,363.821 204.800 C 363.425 204.800,363.243 205.117,363.305 205.700 C 363.376 206.376,363.075 206.743,362.096 207.174 C 361.223 207.558,360.857 207.954,360.987 208.374 C 361.247 209.209,360.779 209.873,359.800 210.061 C 359.321 210.153,359.000 210.533,359.000 211.007 C 359.000 212.156,358.471 212.800,357.527 212.800 C 356.833 212.800,356.783 212.897,357.208 213.410 C 357.794 214.115,357.814 214.088,356.068 214.976 C 355.173 215.431,354.811 215.852,354.966 216.257 C 355.237 216.963,354.522 217.780,353.290 218.171 C 352.706 218.357,352.448 218.729,352.509 219.299 C 352.591 220.068,351.799 220.764,350.200 221.329 C 349.951 221.417,349.980 221.688,350.277 222.048 C 350.666 222.520,350.535 222.722,349.562 223.153 C 348.687 223.540,348.432 223.872,348.602 224.406 C 348.798 225.024,348.336 225.679,347.600 225.828 C 346.621 226.027,346.008 226.597,346.179 227.147 C 346.446 228.007,345.989 228.671,345.000 228.861 C 344.521 228.953,344.200 229.333,344.200 229.807 C 344.200 230.956,343.671 231.600,342.727 231.600 C 342.046 231.600,341.987 231.703,342.391 232.190 C 342.798 232.679,342.632 232.926,341.418 233.642 C 340.478 234.197,340.034 234.712,340.176 235.083 C 340.441 235.771,339.645 236.655,338.572 236.864 C 338.057 236.965,337.800 237.346,337.800 238.007 C 337.800 238.652,337.486 239.138,336.903 239.394 C 336.345 239.638,336.081 240.026,336.206 240.418 C 336.342 240.846,335.955 241.264,335.006 241.716 C 333.944 242.223,333.630 242.603,333.703 243.292 C 333.776 243.977,333.480 244.341,332.496 244.774 C 331.623 245.158,331.257 245.554,331.387 245.974 C 331.646 246.807,331.181 247.471,330.200 247.669 C 329.709 247.768,329.426 248.120,329.466 248.578 C 329.546 249.487,328.701 250.400,327.780 250.400 C 327.228 250.400,327.193 250.510,327.591 250.990 C 327.998 251.479,327.832 251.726,326.618 252.442 C 325.678 252.997,325.234 253.512,325.376 253.883 C 325.641 254.571,324.845 255.455,323.772 255.664 C 323.257 255.765,323.000 256.146,323.000 256.807 C 323.000 257.544,322.663 257.948,321.696 258.374 C 320.784 258.775,320.456 259.145,320.602 259.607 C 320.741 260.045,320.466 260.424,319.780 260.736 C 319.036 261.075,318.814 261.413,318.983 261.947 C 319.118 262.372,318.959 262.902,318.609 263.193 C 318.274 263.471,318.000 263.564,318.000 263.400 C 318.000 263.236,317.711 263.342,317.357 263.636 C 316.814 264.086,316.639 264.068,316.236 263.516 C 315.973 263.157,315.415 262.894,314.996 262.931 C 314.517 262.974,314.028 262.580,313.681 261.871 C 313.323 261.140,312.919 260.822,312.535 260.970 C 311.816 261.246,310.800 260.314,310.800 259.380 C 310.800 258.828,310.690 258.793,310.210 259.191 C 309.721 259.597,309.475 259.433,308.764 258.228 C 308.163 257.210,307.704 256.840,307.229 256.991 C 306.744 257.145,306.361 256.808,305.884 255.806 C 305.377 254.744,304.997 254.430,304.308 254.503 C 303.623 254.576,303.259 254.280,302.826 253.296 C 302.411 252.353,302.062 252.054,301.560 252.213 C 301.122 252.352,300.635 252.100,300.234 251.527 C 299.407 250.346,299.433 250.137,300.440 249.874 C 300.902 249.753,301.172 249.478,301.039 249.263 C 300.673 248.671,301.209 247.600,301.871 247.600 C 302.688 247.600,303.715 246.518,303.200 246.200 C 302.671 245.873,303.723 244.800,304.571 244.800 C 305.149 244.800,305.388 244.317,305.233 243.458 C 305.125 242.856,306.073 242.000,306.849 242.000 C 307.262 242.000,307.619 241.775,307.643 241.500 C 307.666 241.225,307.711 240.640,307.743 240.200 C 307.778 239.700,308.134 239.352,308.691 239.273 C 309.318 239.184,309.554 238.905,309.491 238.330 C 309.440 237.870,309.742 237.314,310.183 237.057 C 311.291 236.410,311.794 235.878,311.840 235.300 C 311.931 234.161,312.029 234.000,312.629 234.000 C 313.482 234.000,314.529 232.927,313.997 232.598 C 313.447 232.258,313.888 231.616,314.939 231.227 C 315.410 231.053,315.797 230.590,315.798 230.200 C 315.799 229.809,316.152 229.290,316.583 229.045 C 317.682 228.421,318.193 227.882,318.240 227.300 C 318.333 226.143,318.438 226.000,319.200 226.000 C 319.929 226.000,320.197 225.569,320.033 224.658 C 319.925 224.056,320.873 223.200,321.649 223.200 C 322.390 223.200,322.556 222.844,322.426 221.530 C 322.385 221.110,322.703 220.812,323.280 220.730 C 323.890 220.644,324.200 220.330,324.200 219.800 C 324.200 218.662,324.724 218.000,325.624 218.000 C 326.051 218.000,326.421 217.775,326.446 217.500 C 326.472 217.225,326.534 216.820,326.585 216.600 C 326.636 216.380,326.706 215.975,326.739 215.700 C 326.773 215.425,327.078 215.200,327.417 215.200 C 328.334 215.200,329.104 214.321,328.894 213.516 C 328.769 213.040,329.018 212.694,329.652 212.459 C 330.171 212.267,330.597 211.790,330.598 211.400 C 330.599 211.009,330.952 210.490,331.383 210.245 C 332.482 209.621,332.993 209.082,333.040 208.500 C 333.133 207.343,333.238 207.200,334.000 207.200 C 334.440 207.200,334.827 206.975,334.861 206.700 C 334.894 206.425,334.944 206.020,334.971 205.800 C 335.074 204.977,335.672 204.400,336.424 204.400 C 337.194 204.400,337.358 204.049,337.221 202.700 C 337.174 202.237,337.429 202.000,337.975 202.000 C 338.429 202.000,338.821 201.775,338.846 201.500 C 338.872 201.225,338.917 200.745,338.946 200.434 C 338.976 200.122,339.539 199.568,340.198 199.202 C 340.857 198.836,341.397 198.211,341.398 197.813 C 341.399 197.415,341.752 196.890,342.183 196.645 C 343.418 195.943,343.800 195.460,343.800 194.600 C 343.800 194.077,344.109 193.756,344.691 193.673 C 345.318 193.584,345.554 193.305,345.491 192.730 C 345.440 192.270,345.742 191.714,346.183 191.457 C 347.291 190.810,347.794 190.278,347.840 189.700 C 347.933 188.543,348.038 188.400,348.800 188.400 C 349.554 188.400,349.663 188.223,349.763 186.832 C 349.785 186.519,350.343 185.962,351.002 185.595 C 351.855 185.119,352.164 184.677,352.075 184.063 C 351.981 183.417,352.158 183.200,352.775 183.200 C 353.526 183.200,353.798 182.775,353.633 181.858 C 353.525 181.256,354.473 180.400,355.249 180.400 C 355.662 180.400,356.021 180.175,356.046 179.900 C 356.072 179.625,356.117 179.150,356.146 178.845 C 356.176 178.540,356.552 178.090,356.983 177.845 C 358.218 177.143,358.600 176.660,358.600 175.800 C 358.600 175.277,358.909 174.956,359.491 174.873 C 360.118 174.784,360.354 174.505,360.291 173.930 C 360.240 173.470,360.542 172.914,360.983 172.657 C 362.091 172.010,362.594 171.478,362.640 170.900 C 362.733 169.743,362.838 169.600,363.600 169.600 C 364.040 169.600,364.427 169.375,364.461 169.100 C 364.494 168.825,364.544 168.420,364.571 168.200 C 364.675 167.364,365.277 166.800,366.066 166.800 C 366.630 166.800,366.814 166.613,366.655 166.200 C 366.313 165.307,366.789 164.400,367.600 164.400 C 367.993 164.400,368.426 164.110,368.562 163.755 C 368.888 162.906,370.000 163.752,370.000 164.849 M188.400 203.991 C 188.400 204.547,185.247 206.000,184.980 205.567 C 184.631 205.003,183.152 206.609,183.408 207.276 C 183.533 207.603,183.358 208.103,183.018 208.385 C 182.678 208.667,182.400 209.146,182.400 209.449 C 182.400 209.752,182.217 210.000,181.992 210.000 C 181.757 210.000,181.691 210.423,181.836 211.000 C 182.026 211.756,181.930 212.000,181.443 212.000 C 180.975 212.000,180.800 212.380,180.800 213.400 C 180.800 214.405,180.977 214.800,181.427 214.800 C 181.872 214.800,181.980 215.032,181.800 215.600 C 181.644 216.090,181.728 216.400,182.016 216.400 C 182.274 216.400,182.382 216.670,182.255 217.000 C 182.112 217.373,182.258 217.600,182.640 217.600 C 183.072 217.600,183.179 217.837,183.000 218.400 C 182.819 218.971,182.928 219.200,183.383 219.200 C 183.733 219.200,184.195 219.662,184.410 220.227 C 184.709 221.012,184.989 221.194,185.600 221.000 C 186.163 220.821,186.400 220.928,186.400 221.360 C 186.400 221.742,186.627 221.888,187.000 221.745 C 187.330 221.618,187.600 221.729,187.600 221.992 C 187.600 222.328,188.075 222.390,189.199 222.200 C 190.461 221.987,190.850 222.064,191.042 222.565 C 191.421 223.552,260.800 223.536,260.800 222.549 C 260.800 222.013,261.084 221.943,262.410 222.155 C 263.707 222.363,264.190 222.254,264.896 221.597 C 265.378 221.148,266.000 220.868,266.278 220.975 C 267.069 221.278,269.275 219.061,268.971 218.269 C 268.798 217.818,268.920 217.600,269.345 217.600 C 269.741 217.600,269.889 217.377,269.745 217.000 C 269.618 216.670,269.728 216.400,269.989 216.400 C 270.308 216.400,270.377 216.007,270.200 215.200 C 270.034 214.445,270.097 214.000,270.368 214.000 C 270.606 214.000,270.800 213.550,270.800 213.000 C 270.800 212.450,270.617 212.000,270.392 212.000 C 270.161 212.000,270.090 211.581,270.228 211.029 C 270.566 209.685,270.113 208.490,269.151 208.184 C 268.679 208.035,268.430 207.698,268.554 207.377 C 268.812 206.704,268.059 206.177,267.070 206.340 C 266.614 206.415,266.262 206.160,266.131 205.658 C 266.005 205.175,265.698 204.941,265.361 205.070 C 265.052 205.189,264.800 205.092,264.800 204.855 C 264.800 204.619,264.530 204.529,264.200 204.655 C 263.820 204.801,263.600 204.650,263.600 204.243 C 263.600 203.657,260.268 203.600,226.000 203.600 C 201.799 203.600,188.400 203.739,188.400 203.991 M186.723 246.107 C 186.443 246.496,185.964 246.718,185.658 246.601 C 185.004 246.350,183.107 248.123,182.969 249.113 C 182.782 250.453,182.301 251.600,181.926 251.600 C 181.717 251.600,181.660 251.960,181.800 252.400 C 181.980 252.968,181.872 253.200,181.427 253.200 C 180.962 253.200,180.800 253.614,180.800 254.800 C 180.800 255.986,180.962 256.400,181.427 256.400 C 181.872 256.400,181.980 256.632,181.800 257.200 C 181.644 257.690,181.728 258.000,182.016 258.000 C 182.274 258.000,182.382 258.270,182.255 258.600 C 182.112 258.973,182.258 259.200,182.640 259.200 C 183.051 259.200,183.178 259.440,183.024 259.925 C 182.742 260.813,184.288 262.275,185.300 262.078 C 185.792 261.982,186.000 262.197,186.000 262.802 C 186.000 263.551,186.157 263.629,187.200 263.400 C 187.955 263.234,188.400 263.297,188.400 263.568 C 188.400 264.518,237.890 264.133,239.238 263.173 C 239.877 262.718,240.400 262.444,240.400 262.563 C 240.400 262.825,243.868 259.487,243.895 259.200 C 243.960 258.493,244.543 257.200,244.797 257.200 C 244.963 257.200,245.100 256.030,245.100 254.600 C 245.100 253.165,244.924 252.000,244.707 252.000 C 244.491 252.000,244.418 251.730,244.545 251.400 C 244.689 251.023,244.541 250.800,244.145 250.800 C 243.787 250.800,243.602 250.572,243.717 250.271 C 243.829 249.981,243.564 249.520,243.130 249.249 C 242.493 248.851,242.433 248.642,242.822 248.173 C 243.225 247.688,243.147 247.608,242.358 247.695 C 241.695 247.769,241.289 247.525,241.006 246.883 C 240.704 246.201,240.374 246.022,239.721 246.185 C 239.228 246.308,238.701 246.184,238.521 245.902 C 237.938 244.990,187.384 245.190,186.723 246.107 M292.654 268.706 C 292.903 268.868,293.177 269.360,293.261 269.800 C 293.363 270.331,293.733 270.600,294.361 270.600 C 295.288 270.600,295.707 271.049,296.175 272.542 C 296.317 272.995,296.639 273.194,297.003 273.054 C 297.831 272.736,298.800 273.171,298.800 273.860 C 298.800 274.750,299.698 275.499,300.512 275.287 C 301.019 275.154,301.317 275.360,301.470 275.947 C 301.593 276.416,301.942 276.800,302.247 276.800 C 302.551 276.800,302.800 276.999,302.800 277.243 C 302.800 277.486,302.545 277.588,302.233 277.468 C 301.921 277.348,301.559 277.529,301.428 277.870 C 301.236 278.371,301.076 278.395,300.595 277.996 C 300.110 277.594,300.000 277.621,300.000 278.141 C 300.000 278.633,299.733 278.727,298.837 278.547 C 297.921 278.364,297.578 278.494,297.221 279.161 C 296.883 279.792,296.526 279.947,295.817 279.768 C 295.111 279.591,294.751 279.744,294.421 280.361 C 294.046 281.062,293.856 281.117,293.208 280.712 C 292.564 280.310,292.318 280.372,291.689 281.097 C 290.530 282.434,289.351 281.902,289.030 279.898 C 288.857 278.815,288.929 278.168,289.244 277.973 C 289.563 277.776,289.637 277.073,289.467 275.839 C 289.258 274.311,289.324 274.000,289.859 274.000 C 290.401 274.000,290.461 273.682,290.238 272.000 C 290.068 270.718,290.121 270.000,290.386 270.000 C 290.614 270.000,290.800 269.745,290.800 269.433 C 290.800 269.122,291.025 268.776,291.300 268.665 C 292.019 268.375,292.148 268.379,292.654 268.706 " stroke="none" fill="#b48c5c" fill-rule="evenodd"></path><path id="path1" d="M312.800 56.973 C 312.800 57.068,325.017 69.365,339.950 84.300 C 354.882 99.235,367.225 111.847,367.377 112.327 C 367.529 112.807,367.822 113.200,368.027 113.200 C 369.709 113.200,366.260 109.516,340.120 83.387 C 316.689 59.967,312.800 56.207,312.800 56.973 M141.384 58.827 C 141.239 59.061,141.216 59.349,141.333 59.467 C 141.620 59.753,142.400 59.248,142.400 58.776 C 142.400 58.265,141.709 58.299,141.384 58.827 M137.384 62.827 C 137.239 63.061,137.216 63.349,137.333 63.467 C 137.620 63.753,138.400 63.248,138.400 62.776 C 138.400 62.265,137.709 62.299,137.384 62.827 M135.043 66.633 C 134.713 67.493,134.733 67.600,135.224 67.600 C 135.457 67.600,135.536 67.420,135.400 67.200 C 135.264 66.980,135.343 66.800,135.576 66.800 C 135.809 66.800,136.000 66.620,136.000 66.400 C 136.000 65.767,135.311 65.935,135.043 66.633 M152.598 201.000 C 152.597 270.300,152.644 298.710,152.700 264.132 C 152.756 229.555,152.756 172.855,152.700 138.132 C 152.644 103.410,152.598 131.700,152.598 201.000 M188.400 120.800 C 188.400 121.020,188.670 121.200,189.000 121.200 C 189.330 121.200,189.600 121.020,189.600 120.800 C 189.600 120.580,189.330 120.400,189.000 120.400 C 188.670 120.400,188.400 120.580,188.400 120.800 M383.200 120.800 C 383.200 121.020,383.459 121.200,383.776 121.200 C 384.093 121.200,384.464 121.020,384.600 120.800 C 384.736 120.580,384.477 120.400,384.024 120.400 C 383.571 120.400,383.200 120.580,383.200 120.800 M386.400 120.800 C 386.400 121.020,386.670 121.200,387.000 121.200 C 387.330 121.200,387.600 121.020,387.600 120.800 C 387.600 120.580,387.330 120.400,387.000 120.400 C 386.670 120.400,386.400 120.580,386.400 120.800 M307.200 122.711 C 307.200 123.118,309.577 125.200,310.041 125.200 C 310.671 125.200,310.433 124.785,309.111 123.577 C 307.826 122.404,307.200 122.120,307.200 122.711 M183.214 123.574 C 182.577 124.765,182.720 124.997,183.600 124.200 C 184.457 123.424,184.642 122.800,184.014 122.800 C 183.802 122.800,183.442 123.148,183.214 123.574 M375.433 123.857 C 375.295 124.219,375.271 124.604,375.381 124.714 C 375.636 124.970,376.800 124.016,376.800 123.551 C 376.800 122.930,375.694 123.178,375.433 123.857 M395.305 124.676 C 395.677 125.048,396.115 125.218,396.279 125.054 C 396.443 124.891,396.312 124.589,395.988 124.384 C 395.015 123.769,394.582 123.953,395.305 124.676 M181.843 125.833 C 181.479 126.780,181.549 127.278,182.007 126.996 C 182.230 126.858,182.309 126.577,182.183 126.372 C 182.056 126.168,182.143 126.000,182.376 126.000 C 182.609 126.000,182.800 125.820,182.800 125.600 C 182.800 124.967,182.111 125.135,181.843 125.833 M372.989 126.412 C 372.010 127.493,372.615 127.963,373.651 126.926 C 374.114 126.464,374.309 125.991,374.094 125.858 C 373.881 125.726,373.384 125.976,372.989 126.412 M397.830 126.352 C 397.568 126.775,398.711 127.822,399.057 127.476 C 399.188 127.345,399.015 126.958,398.673 126.616 C 398.331 126.274,397.952 126.155,397.830 126.352 M371.043 129.033 C 370.667 130.011,370.749 130.141,371.400 129.600 C 372.065 129.048,372.196 128.400,371.643 128.400 C 371.446 128.400,371.176 128.685,371.043 129.033 M368.800 132.024 C 368.800 132.477,368.980 132.736,369.200 132.600 C 369.420 132.464,369.600 132.093,369.600 131.776 C 369.600 131.459,369.420 131.200,369.200 131.200 C 368.980 131.200,368.800 131.571,368.800 132.024 M182.806 135.851 C 182.818 136.539,183.498 137.289,183.746 136.888 C 183.881 136.669,183.723 136.268,183.396 135.996 C 183.068 135.724,182.803 135.659,182.806 135.851 M184.643 138.167 C 184.776 138.515,185.061 138.800,185.276 138.800 C 185.802 138.800,185.473 137.891,184.875 137.692 C 184.582 137.594,184.493 137.777,184.643 138.167 M306.596 138.407 C 306.458 138.630,306.177 138.709,305.972 138.583 C 305.768 138.456,305.600 138.563,305.600 138.819 C 305.600 139.080,305.879 139.179,306.233 139.043 C 306.581 138.909,307.031 138.800,307.233 138.800 C 307.435 138.800,307.600 138.620,307.600 138.400 C 307.600 137.879,306.919 137.884,306.596 138.407 M386.267 141.467 C 386.141 141.592,386.308 141.965,386.638 142.295 C 386.968 142.625,387.341 142.792,387.467 142.667 C 387.592 142.541,387.425 142.168,387.095 141.838 C 386.765 141.508,386.392 141.341,386.267 141.467 M383.784 143.627 C 383.639 143.861,383.616 144.149,383.733 144.267 C 384.020 144.553,384.800 144.048,384.800 143.576 C 384.800 143.065,384.109 143.099,383.784 143.627 M388.800 143.957 C 388.800 144.154,389.085 144.424,389.433 144.557 C 390.411 144.933,390.541 144.851,390.000 144.200 C 389.448 143.535,388.800 143.404,388.800 143.957 M391.600 146.357 C 391.600 146.801,392.831 147.303,393.146 146.988 C 393.273 146.861,393.112 146.589,392.788 146.384 C 392.040 145.911,391.600 145.901,391.600 146.357 M394.100 148.100 C 394.191 148.375,394.606 148.666,395.020 148.746 C 395.673 148.873,395.702 148.805,395.238 148.246 C 394.604 147.482,393.862 147.386,394.100 148.100 M380.000 148.629 C 380.000 149.227,381.162 149.985,381.426 149.558 C 381.578 149.312,381.454 148.953,381.151 148.761 C 380.514 148.358,380.000 148.299,380.000 148.629 M396.800 150.357 C 396.800 150.554,397.085 150.824,397.433 150.957 C 398.411 151.333,398.541 151.251,398.000 150.600 C 397.448 149.935,396.800 149.804,396.800 150.357 M385.300 152.900 C 385.391 153.175,385.806 153.466,386.220 153.546 C 386.873 153.673,386.902 153.605,386.438 153.046 C 385.804 152.282,385.062 152.186,385.300 152.900 M388.505 155.476 C 388.877 155.848,389.315 156.018,389.479 155.854 C 389.643 155.691,389.512 155.389,389.188 155.184 C 388.215 154.569,387.782 154.753,388.505 155.476 M390.800 157.151 C 390.800 157.653,391.974 158.560,392.257 158.276 C 392.388 158.145,392.217 157.760,391.876 157.419 C 391.181 156.724,390.800 156.629,390.800 157.151 M347.660 158.668 C 346.914 159.474,347.468 159.903,348.248 159.124 C 348.594 158.778,348.724 158.402,348.538 158.289 C 348.352 158.176,347.957 158.347,347.660 158.668 M393.200 159.124 C 393.200 159.339,393.485 159.624,393.833 159.757 C 394.223 159.907,394.406 159.818,394.308 159.525 C 394.109 158.927,393.200 158.598,393.200 159.124 M398.184 160.427 C 398.039 160.661,398.016 160.949,398.133 161.067 C 398.420 161.353,399.200 160.848,399.200 160.376 C 399.200 159.865,398.509 159.899,398.184 160.427 M345.432 161.460 C 345.093 162.344,345.377 162.550,345.962 161.845 C 346.246 161.503,346.286 161.177,346.061 161.038 C 345.854 160.910,345.571 161.099,345.432 161.460 M396.000 161.151 C 396.000 161.658,397.029 162.437,397.318 162.149 C 397.452 162.015,397.313 161.656,397.010 161.352 C 396.376 160.719,396.000 160.644,396.000 161.151 M305.600 163.197 C 305.600 163.444,305.768 163.544,305.973 163.417 C 306.178 163.290,306.609 163.563,306.931 164.023 C 307.506 164.844,308.209 164.571,307.674 163.735 C 307.261 163.091,305.600 162.660,305.600 163.197 M183.863 164.577 C 183.278 165.119,182.800 165.792,182.800 166.073 C 182.800 166.354,183.376 166.009,184.079 165.305 C 185.595 163.790,185.404 163.149,183.863 164.577 M343.228 164.166 C 342.930 164.525,342.805 164.938,342.950 165.083 C 343.323 165.457,344.122 164.567,343.930 163.991 C 343.820 163.660,343.603 163.714,343.228 164.166 M368.475 164.025 C 368.571 164.314,368.886 164.629,369.175 164.725 C 369.475 164.825,369.625 164.675,369.525 164.375 C 369.429 164.086,369.114 163.771,368.825 163.675 C 368.525 163.575,368.375 163.725,368.475 164.025 M366.812 165.184 C 366.488 165.389,366.327 165.661,366.454 165.788 C 366.769 166.103,368.000 165.601,368.000 165.157 C 368.000 164.701,367.560 164.711,366.812 165.184 M341.443 166.633 C 341.067 167.611,341.149 167.741,341.800 167.200 C 342.465 166.648,342.596 166.000,342.043 166.000 C 341.846 166.000,341.576 166.285,341.443 166.633 M371.300 166.500 C 371.391 166.775,371.806 167.066,372.220 167.146 C 372.873 167.273,372.902 167.205,372.438 166.646 C 371.804 165.882,371.062 165.786,371.300 166.500 M365.067 167.467 C 364.684 167.849,364.738 168.400,365.157 168.400 C 365.354 168.400,365.618 168.130,365.745 167.800 C 365.979 167.190,365.553 166.981,365.067 167.467 M374.267 168.267 C 374.141 168.392,374.308 168.765,374.638 169.095 C 374.968 169.425,375.341 169.592,375.467 169.467 C 375.592 169.341,375.425 168.968,375.095 168.638 C 374.765 168.308,374.392 168.141,374.267 168.267 M339.033 169.457 C 338.699 170.330,339.143 170.736,339.616 169.988 C 340.089 169.240,340.099 168.800,339.643 168.800 C 339.446 168.800,339.172 169.096,339.033 169.457 M362.584 170.427 C 362.115 171.186,362.799 171.373,363.495 170.676 C 364.119 170.053,364.120 170.000,363.509 170.000 C 363.145 170.000,362.729 170.192,362.584 170.427 M376.475 170.425 C 376.571 170.714,376.886 171.029,377.175 171.125 C 377.475 171.225,377.625 171.075,377.525 170.775 C 377.429 170.486,377.114 170.171,376.825 170.075 C 376.525 169.975,376.375 170.125,376.475 170.425 M336.860 172.268 C 336.114 173.074,336.668 173.503,337.448 172.724 C 337.794 172.378,337.924 172.002,337.738 171.889 C 337.552 171.776,337.157 171.947,336.860 172.268 M379.482 172.268 C 379.195 172.731,379.863 173.870,380.215 173.518 C 380.357 173.376,380.302 172.953,380.092 172.579 C 379.882 172.204,379.608 172.064,379.482 172.268 M360.667 173.067 C 360.181 173.553,360.390 173.979,361.000 173.745 C 361.330 173.618,361.600 173.354,361.600 173.157 C 361.600 172.738,361.049 172.684,360.667 173.067 M382.000 174.757 C 382.000 174.954,382.285 175.224,382.633 175.357 C 383.611 175.733,383.741 175.651,383.200 175.000 C 382.648 174.335,382.000 174.204,382.000 174.757 M358.852 175.337 C 358.239 176.076,358.764 176.493,359.448 175.810 C 359.751 175.506,360.000 175.154,360.000 175.029 C 360.000 174.607,359.303 174.794,358.852 175.337 M384.406 176.300 C 384.417 176.847,385.153 177.781,385.388 177.546 C 385.703 177.231,385.201 176.000,384.757 176.000 C 384.561 176.000,384.403 176.135,384.406 176.300 M309.212 177.184 C 308.888 177.389,308.727 177.661,308.854 177.788 C 309.169 178.103,310.400 177.601,310.400 177.157 C 310.400 176.701,309.960 176.711,309.212 177.184 M332.860 177.468 C 332.114 178.274,332.668 178.703,333.448 177.924 C 333.794 177.578,333.924 177.202,333.738 177.089 C 333.552 176.976,333.157 177.147,332.860 177.468 M182.800 177.600 C 182.800 178.156,184.298 179.600,184.875 179.600 C 185.136 179.600,184.832 179.060,184.200 178.400 C 182.942 177.087,182.800 177.006,182.800 177.600 M356.498 178.266 C 356.221 178.377,356.092 178.625,356.210 178.817 C 356.470 179.236,357.600 178.862,357.600 178.357 C 357.600 177.972,357.290 177.946,356.498 178.266 M383.384 179.227 C 383.239 179.461,383.216 179.749,383.333 179.867 C 383.620 180.153,384.400 179.648,384.400 179.176 C 384.400 178.665,383.709 178.699,383.384 179.227 M330.632 180.260 C 330.293 181.144,330.577 181.350,331.162 180.645 C 331.446 180.303,331.486 179.977,331.261 179.838 C 331.054 179.710,330.771 179.899,330.632 180.260 M303.200 181.200 C 303.200 181.420,303.470 181.600,303.800 181.600 C 304.130 181.600,304.400 181.420,304.400 181.200 C 304.400 180.980,304.130 180.800,303.800 180.800 C 303.470 180.800,303.200 180.980,303.200 181.200 M354.184 181.227 C 354.039 181.461,354.016 181.749,354.133 181.867 C 354.420 182.153,355.200 181.648,355.200 181.176 C 355.200 180.665,354.509 180.699,354.184 181.227 M381.212 181.984 C 380.888 182.189,380.757 182.491,380.921 182.654 C 381.085 182.818,381.523 182.648,381.895 182.276 C 382.618 181.553,382.185 181.369,381.212 181.984 M328.184 183.227 C 328.039 183.461,328.016 183.749,328.133 183.867 C 328.420 184.153,329.200 183.648,329.200 183.176 C 329.200 182.665,328.509 182.699,328.184 183.227 M379.433 184.257 C 379.295 184.619,379.263 184.997,379.364 185.097 C 379.682 185.415,380.400 184.777,380.400 184.176 C 380.400 183.392,379.744 183.447,379.433 184.257 M326.643 185.433 C 326.267 186.411,326.349 186.541,327.000 186.000 C 327.665 185.448,327.796 184.800,327.243 184.800 C 327.046 184.800,326.776 185.085,326.643 185.433 M350.473 186.087 C 349.913 186.647,349.855 187.200,350.357 187.200 C 350.724 187.200,351.327 185.994,351.083 185.749 C 351.008 185.675,350.734 185.826,350.473 186.087 M377.260 187.068 C 376.514 187.874,377.068 188.303,377.848 187.524 C 378.194 187.178,378.324 186.802,378.138 186.689 C 377.952 186.576,377.557 186.747,377.260 187.068 M324.233 188.257 C 323.899 189.130,324.343 189.536,324.816 188.788 C 325.289 188.040,325.299 187.600,324.843 187.600 C 324.646 187.600,324.372 187.896,324.233 188.257 M347.784 189.227 C 347.639 189.461,347.602 189.735,347.703 189.836 C 347.982 190.115,349.200 189.563,349.200 189.157 C 349.200 188.656,348.103 188.710,347.784 189.227 M374.984 190.027 C 374.839 190.261,374.816 190.549,374.933 190.667 C 375.220 190.953,376.000 190.448,376.000 189.976 C 376.000 189.465,375.309 189.499,374.984 190.027 M322.060 191.068 C 321.314 191.874,321.868 192.303,322.648 191.524 C 322.994 191.178,323.124 190.802,322.938 190.689 C 322.752 190.576,322.357 190.747,322.060 191.068 M398.584 190.827 C 398.439 191.061,398.416 191.349,398.533 191.467 C 398.820 191.753,399.600 191.248,399.600 190.776 C 399.600 190.265,398.909 190.299,398.584 190.827 M345.867 191.867 C 345.381 192.353,345.590 192.779,346.200 192.545 C 346.530 192.418,346.800 192.154,346.800 191.957 C 346.800 191.538,346.249 191.484,345.867 191.867 M372.584 192.827 C 372.439 193.061,372.416 193.349,372.533 193.467 C 372.820 193.753,373.600 193.248,373.600 192.776 C 373.600 192.265,372.909 192.299,372.584 192.827 M320.233 193.457 C 319.899 194.330,320.343 194.736,320.816 193.988 C 321.289 193.240,321.299 192.800,320.843 192.800 C 320.646 192.800,320.372 193.096,320.233 193.457 M344.052 194.137 C 343.439 194.876,343.964 195.293,344.648 194.610 C 344.951 194.306,345.200 193.954,345.200 193.829 C 345.200 193.407,344.503 193.594,344.052 194.137 M371.033 195.057 C 370.699 195.930,371.143 196.336,371.616 195.588 C 372.089 194.840,372.099 194.400,371.643 194.400 C 371.446 194.400,371.172 194.696,371.033 195.057 M318.060 196.268 C 317.314 197.074,317.868 197.503,318.648 196.724 C 318.994 196.378,319.124 196.002,318.938 195.889 C 318.752 195.776,318.357 195.947,318.060 196.268 M394.584 196.027 C 394.439 196.261,394.416 196.549,394.533 196.667 C 394.820 196.953,395.600 196.448,395.600 195.976 C 395.600 195.465,394.909 195.499,394.584 196.027 M341.698 197.066 C 341.421 197.177,341.292 197.425,341.410 197.617 C 341.670 198.036,342.800 197.662,342.800 197.157 C 342.800 196.772,342.490 196.746,341.698 197.066 M368.584 198.027 C 368.439 198.261,368.416 198.549,368.533 198.667 C 368.820 198.953,369.600 198.448,369.600 197.976 C 369.600 197.465,368.909 197.499,368.584 198.027 M315.660 199.068 C 314.914 199.874,315.468 200.303,316.248 199.524 C 316.594 199.178,316.724 198.802,316.538 198.689 C 316.352 198.576,315.957 198.747,315.660 199.068 M392.400 199.000 C 391.859 199.651,391.989 199.733,392.967 199.357 C 393.315 199.224,393.600 198.954,393.600 198.757 C 393.600 198.204,392.952 198.335,392.400 199.000 M339.384 200.027 C 339.239 200.261,339.216 200.549,339.333 200.667 C 339.620 200.953,340.400 200.448,340.400 199.976 C 340.400 199.465,339.709 199.499,339.384 200.027 M366.412 200.784 C 366.088 200.989,365.957 201.291,366.121 201.454 C 366.285 201.618,366.723 201.448,367.095 201.076 C 367.818 200.353,367.385 200.169,366.412 200.784 M390.267 201.467 C 389.781 201.953,389.990 202.379,390.600 202.145 C 390.930 202.018,391.200 201.754,391.200 201.557 C 391.200 201.138,390.649 201.084,390.267 201.467 M313.384 202.027 C 313.239 202.261,313.216 202.549,313.333 202.667 C 313.620 202.953,314.400 202.448,314.400 201.976 C 314.400 201.465,313.709 201.499,313.384 202.027 M364.469 203.239 C 364.180 203.700,364.043 204.176,364.163 204.296 C 364.489 204.623,365.600 203.584,365.600 202.951 C 365.600 202.143,365.068 202.279,364.469 203.239 M311.724 204.173 C 311.462 204.471,311.356 204.822,311.487 204.954 C 311.772 205.239,312.800 204.453,312.800 203.951 C 312.800 203.440,312.272 203.548,311.724 204.173 M388.498 203.866 C 388.221 203.977,388.092 204.225,388.210 204.417 C 388.470 204.836,389.600 204.462,389.600 203.957 C 389.600 203.572,389.290 203.546,388.498 203.866 M265.200 204.824 C 265.200 205.057,265.347 205.156,265.527 205.045 C 265.707 204.934,266.100 205.184,266.400 205.600 C 266.700 206.016,267.093 206.266,267.273 206.155 C 267.862 205.791,267.618 205.337,266.581 204.864 C 265.329 204.294,265.200 204.290,265.200 204.824 M335.673 204.887 C 335.113 205.447,335.055 206.000,335.557 206.000 C 335.924 206.000,336.527 204.794,336.283 204.549 C 336.208 204.475,335.934 204.626,335.673 204.887 M362.460 205.868 C 361.714 206.674,362.268 207.103,363.048 206.324 C 363.394 205.978,363.524 205.602,363.338 205.489 C 363.152 205.376,362.757 205.547,362.460 205.868 M309.433 207.057 C 309.099 207.930,309.543 208.336,310.016 207.588 C 310.489 206.840,310.499 206.400,310.043 206.400 C 309.846 206.400,309.572 206.696,309.433 207.057 M386.184 206.827 C 386.039 207.061,386.016 207.349,386.133 207.467 C 386.420 207.753,387.200 207.248,387.200 206.776 C 387.200 206.265,386.509 206.299,386.184 206.827 M182.400 207.600 C 182.083 207.796,181.956 208.089,182.118 208.252 C 182.281 208.414,182.623 208.337,182.880 208.080 C 183.484 207.476,183.147 207.138,182.400 207.600 M332.984 208.027 C 332.839 208.261,332.816 208.549,332.933 208.667 C 333.220 208.953,334.000 208.448,334.000 207.976 C 334.000 207.465,333.309 207.499,332.984 208.027 M360.184 208.827 C 360.039 209.061,360.016 209.349,360.133 209.467 C 360.420 209.753,361.200 209.248,361.200 208.776 C 361.200 208.265,360.509 208.299,360.184 208.827 M307.260 209.866 C 306.962 210.189,306.830 210.564,306.966 210.700 C 307.301 211.034,308.127 210.170,307.945 209.674 C 307.865 209.456,307.557 209.542,307.260 209.866 M383.784 209.627 C 383.639 209.861,383.616 210.149,383.733 210.267 C 384.020 210.553,384.800 210.048,384.800 209.576 C 384.800 209.065,384.109 209.099,383.784 209.627 M180.800 211.200 C 180.800 211.640,180.980 212.000,181.200 212.000 C 181.420 212.000,181.600 211.640,181.600 211.200 C 181.600 210.760,181.420 210.400,181.200 210.400 C 180.980 210.400,180.800 210.760,180.800 211.200 M331.067 210.667 C 330.581 211.153,330.790 211.579,331.400 211.345 C 331.730 211.218,332.000 210.954,332.000 210.757 C 332.000 210.338,331.449 210.284,331.067 210.667 M357.784 211.627 C 357.639 211.861,357.616 212.149,357.733 212.267 C 358.020 212.553,358.800 212.048,358.800 211.576 C 358.800 211.065,358.109 211.099,357.784 211.627 M329.273 212.887 C 328.713 213.447,328.655 214.000,329.157 214.000 C 329.524 214.000,330.127 212.794,329.883 212.549 C 329.808 212.475,329.534 212.626,329.273 212.887 M356.233 213.857 C 355.899 214.730,356.343 215.136,356.816 214.388 C 357.289 213.640,357.299 213.200,356.843 213.200 C 356.646 213.200,356.372 213.496,356.233 213.857 M303.260 215.068 C 302.514 215.874,303.068 216.303,303.848 215.524 C 304.194 215.178,304.324 214.802,304.138 214.689 C 303.952 214.576,303.557 214.747,303.260 215.068 M379.784 214.827 C 379.639 215.061,379.616 215.349,379.733 215.467 C 380.020 215.753,380.800 215.248,380.800 214.776 C 380.800 214.265,380.109 214.299,379.784 214.827 M326.898 215.866 C 326.621 215.977,326.492 216.225,326.610 216.417 C 326.870 216.836,328.000 216.462,328.000 215.957 C 328.000 215.572,327.690 215.546,326.898 215.866 M353.784 216.827 C 353.639 217.061,353.616 217.349,353.733 217.467 C 354.020 217.753,354.800 217.248,354.800 216.776 C 354.800 216.265,354.109 216.299,353.784 216.827 M300.860 217.868 C 300.114 218.674,300.668 219.103,301.448 218.324 C 301.794 217.978,301.924 217.602,301.738 217.489 C 301.552 217.376,301.157 217.547,300.860 217.868 M377.612 217.584 C 377.288 217.789,377.127 218.061,377.254 218.188 C 377.569 218.503,378.800 218.001,378.800 217.557 C 378.800 217.101,378.360 217.111,377.612 217.584 M324.584 218.827 C 324.439 219.061,324.416 219.349,324.533 219.467 C 324.820 219.753,325.600 219.248,325.600 218.776 C 325.600 218.265,324.909 218.299,324.584 218.827 M351.600 219.600 C 351.283 219.796,351.156 220.089,351.318 220.252 C 351.481 220.414,351.823 220.337,352.080 220.080 C 352.684 219.476,352.347 219.138,351.600 219.600 M375.467 220.267 C 374.981 220.753,375.190 221.179,375.800 220.945 C 376.130 220.818,376.400 220.554,376.400 220.357 C 376.400 219.938,375.849 219.884,375.467 220.267 M298.584 220.827 C 298.439 221.061,298.416 221.349,298.533 221.467 C 298.820 221.753,299.600 221.248,299.600 220.776 C 299.600 220.265,298.909 220.299,298.584 220.827 M188.800 222.800 C 188.800 223.020,189.250 223.200,189.800 223.200 C 190.350 223.200,190.800 223.020,190.800 222.800 C 190.800 222.580,190.350 222.400,189.800 222.400 C 189.250 222.400,188.800 222.580,188.800 222.800 M261.200 222.800 C 261.200 223.020,261.560 223.200,262.000 223.200 C 262.440 223.200,262.800 223.020,262.800 222.800 C 262.800 222.580,262.440 222.400,262.000 222.400 C 261.560 222.400,261.200 222.580,261.200 222.800 M296.860 223.042 C 296.562 223.378,296.423 223.756,296.550 223.883 C 296.828 224.161,298.000 223.246,298.000 222.751 C 298.000 222.220,297.465 222.357,296.860 223.042 M373.612 222.784 C 373.288 222.989,373.127 223.261,373.254 223.388 C 373.569 223.703,374.800 223.201,374.800 222.757 C 374.800 222.301,374.360 222.311,373.612 222.784 M320.667 223.867 C 320.284 224.249,320.338 224.800,320.757 224.800 C 320.954 224.800,321.218 224.530,321.345 224.200 C 321.579 223.590,321.153 223.381,320.667 223.867 M347.660 224.668 C 346.914 225.474,347.468 225.903,348.248 225.124 C 348.594 224.778,348.724 224.402,348.538 224.289 C 348.352 224.176,347.957 224.347,347.660 224.668 M294.633 225.857 C 294.299 226.730,294.743 227.136,295.216 226.388 C 295.689 225.640,295.699 225.200,295.243 225.200 C 295.046 225.200,294.772 225.496,294.633 225.857 M371.467 225.467 C 370.981 225.953,371.190 226.379,371.800 226.145 C 372.130 226.018,372.400 225.754,372.400 225.557 C 372.400 225.138,371.849 225.084,371.467 225.467 M318.184 226.827 C 318.039 227.061,318.016 227.349,318.133 227.467 C 318.420 227.753,319.200 227.248,319.200 226.776 C 319.200 226.265,318.509 226.299,318.184 226.827 M345.384 227.627 C 345.239 227.861,345.216 228.149,345.333 228.267 C 345.620 228.553,346.400 228.048,346.400 227.576 C 346.400 227.065,345.709 227.099,345.384 227.627 M292.428 228.566 C 292.130 228.925,292.005 229.338,292.150 229.483 C 292.523 229.857,293.322 228.967,293.130 228.391 C 293.020 228.060,292.803 228.114,292.428 228.566 M368.984 228.427 C 368.839 228.661,368.816 228.949,368.933 229.067 C 369.220 229.353,370.000 228.848,370.000 228.376 C 370.000 227.865,369.309 227.899,368.984 228.427 M316.267 229.467 C 315.781 229.953,315.990 230.379,316.600 230.145 C 316.930 230.018,317.200 229.754,317.200 229.557 C 317.200 229.138,316.649 229.084,316.267 229.467 M342.984 230.427 C 342.839 230.661,342.816 230.949,342.933 231.067 C 343.220 231.353,344.000 230.848,344.000 230.376 C 344.000 229.865,343.309 229.899,342.984 230.427 M290.643 231.033 C 290.267 232.011,290.349 232.141,291.000 231.600 C 291.665 231.048,291.796 230.400,291.243 230.400 C 291.046 230.400,290.776 230.685,290.643 231.033 M314.473 231.687 C 313.913 232.247,313.855 232.800,314.357 232.800 C 314.724 232.800,315.327 231.594,315.083 231.349 C 315.008 231.275,314.734 231.426,314.473 231.687 M341.442 232.635 C 341.120 233.474,341.135 233.600,341.557 233.600 C 342.057 233.600,342.438 232.471,342.024 232.215 C 341.837 232.099,341.575 232.288,341.442 232.635 M288.460 233.868 C 287.719 234.669,288.209 235.048,288.984 234.273 C 289.326 233.931,289.470 233.568,289.303 233.467 C 289.136 233.367,288.757 233.547,288.460 233.868 M312.276 234.590 C 311.878 234.883,311.706 235.219,311.895 235.335 C 312.377 235.633,313.328 234.979,313.149 234.474 C 313.053 234.205,312.742 234.246,312.276 234.590 M338.984 235.627 C 338.839 235.861,338.816 236.149,338.933 236.267 C 339.220 236.553,340.000 236.048,340.000 235.576 C 340.000 235.065,339.309 235.099,338.984 235.627 M286.060 236.668 C 285.314 237.474,285.868 237.903,286.648 237.124 C 286.994 236.778,287.124 236.402,286.938 236.289 C 286.752 236.176,286.357 236.347,286.060 236.668 M309.784 237.627 C 309.639 237.861,309.616 238.149,309.733 238.267 C 310.020 238.553,310.800 238.048,310.800 237.576 C 310.800 237.065,310.109 237.099,309.784 237.627 M336.800 238.400 C 336.483 238.596,336.356 238.889,336.518 239.052 C 336.681 239.214,337.023 239.137,337.280 238.880 C 337.884 238.276,337.547 237.938,336.800 238.400 M283.784 239.627 C 283.639 239.861,283.616 240.149,283.733 240.267 C 284.020 240.553,284.800 240.048,284.800 239.576 C 284.800 239.065,284.109 239.099,283.784 239.627 M308.124 239.773 C 307.479 240.508,307.953 240.904,308.648 240.210 C 308.951 239.906,309.200 239.554,309.200 239.429 C 309.200 239.026,308.615 239.213,308.124 239.773 M335.033 240.657 C 334.699 241.530,335.143 241.936,335.616 241.188 C 336.089 240.440,336.099 240.000,335.643 240.000 C 335.446 240.000,335.172 240.296,335.033 240.657 M282.060 241.868 C 281.314 242.674,281.868 243.103,282.648 242.324 C 282.994 241.978,283.124 241.602,282.938 241.489 C 282.752 241.376,282.357 241.547,282.060 241.868 M305.867 242.667 C 305.484 243.049,305.538 243.600,305.957 243.600 C 306.154 243.600,306.418 243.330,306.545 243.000 C 306.779 242.390,306.353 242.181,305.867 242.667 M332.860 243.468 C 332.114 244.274,332.668 244.703,333.448 243.924 C 333.794 243.578,333.924 243.202,333.738 243.089 C 333.552 242.976,333.157 243.147,332.860 243.468 M279.833 244.657 C 279.499 245.530,279.943 245.936,280.416 245.188 C 280.889 244.440,280.899 244.000,280.443 244.000 C 280.246 244.000,279.972 244.296,279.833 244.657 M190.200 245.200 C 190.360 245.459,198.530 245.600,213.400 245.600 C 228.270 245.600,236.440 245.459,236.600 245.200 C 236.764 244.935,228.930 244.800,213.400 244.800 C 197.870 244.800,190.036 244.935,190.200 245.200 M303.384 245.627 C 303.239 245.861,303.216 246.149,303.333 246.267 C 303.620 246.553,304.400 246.048,304.400 245.576 C 304.400 245.065,303.709 245.099,303.384 245.627 M330.584 246.427 C 330.439 246.661,330.416 246.949,330.533 247.067 C 330.820 247.353,331.600 246.848,331.600 246.376 C 331.600 245.865,330.909 245.899,330.584 246.427 M241.275 246.825 C 241.371 247.114,241.686 247.429,241.975 247.525 C 242.275 247.625,242.425 247.475,242.325 247.175 C 242.229 246.886,241.914 246.571,241.625 246.475 C 241.325 246.375,241.175 246.525,241.275 246.825 M277.628 247.366 C 277.330 247.725,277.205 248.138,277.350 248.283 C 277.723 248.657,278.522 247.767,278.330 247.191 C 278.220 246.860,278.003 246.914,277.628 247.366 M242.800 248.351 C 242.800 248.544,243.070 248.926,243.400 249.200 C 244.051 249.741,244.133 249.611,243.757 248.633 C 243.500 247.963,242.800 247.757,242.800 248.351 M301.212 248.384 C 300.888 248.589,300.727 248.861,300.854 248.988 C 301.169 249.303,302.400 248.801,302.400 248.357 C 302.400 247.901,301.960 247.911,301.212 248.384 M328.184 249.227 C 328.039 249.461,328.016 249.749,328.133 249.867 C 328.420 250.153,329.200 249.648,329.200 249.176 C 329.200 248.665,328.509 248.699,328.184 249.227 M275.843 249.833 C 275.467 250.811,275.549 250.941,276.200 250.400 C 276.865 249.848,276.996 249.200,276.443 249.200 C 276.246 249.200,275.976 249.485,275.843 249.833 M244.000 250.400 C 244.000 250.620,244.191 250.800,244.424 250.800 C 244.657 250.800,244.736 250.980,244.600 251.200 C 244.464 251.420,244.543 251.600,244.776 251.600 C 245.267 251.600,245.287 251.493,244.957 250.633 C 244.689 249.935,244.000 249.767,244.000 250.400 M300.000 250.120 C 300.000 250.678,300.955 252.400,301.264 252.400 C 301.825 252.400,301.643 251.772,300.800 250.800 C 300.360 250.293,300.000 249.987,300.000 250.120 M326.632 251.460 C 326.293 252.344,326.577 252.550,327.162 251.845 C 327.446 251.503,327.486 251.177,327.261 251.038 C 327.054 250.910,326.771 251.099,326.632 251.460 M303.292 253.675 C 303.379 253.936,303.664 254.221,303.925 254.308 C 304.218 254.406,304.307 254.223,304.157 253.833 C 303.878 253.106,303.052 252.955,303.292 253.675 M245.200 254.800 C 245.200 255.240,245.380 255.600,245.600 255.600 C 245.820 255.600,246.000 255.240,246.000 254.800 C 246.000 254.360,245.820 254.000,245.600 254.000 C 245.380 254.000,245.200 254.360,245.200 254.800 M324.184 254.427 C 324.039 254.661,324.016 254.949,324.133 255.067 C 324.420 255.353,325.200 254.848,325.200 254.376 C 325.200 253.865,324.509 253.899,324.184 254.427 M348.012 255.184 C 347.688 255.389,347.527 255.661,347.654 255.788 C 347.969 256.103,349.200 255.601,349.200 255.157 C 349.200 254.701,348.760 254.711,348.012 255.184 M306.000 256.013 C 306.000 256.528,307.140 256.994,307.506 256.628 C 307.655 256.479,307.512 256.189,307.188 255.984 C 306.414 255.495,306.000 255.505,306.000 256.013 M322.000 257.200 C 321.683 257.396,321.556 257.689,321.718 257.852 C 321.881 258.014,322.223 257.937,322.480 257.680 C 323.084 257.076,322.747 256.738,322.000 257.200 M345.867 257.867 C 345.381 258.353,345.590 258.779,346.200 258.545 C 346.530 258.418,346.800 258.154,346.800 257.957 C 346.800 257.538,346.249 257.484,345.867 257.867 M309.305 258.676 C 309.677 259.048,310.115 259.218,310.279 259.054 C 310.443 258.891,310.312 258.589,309.988 258.384 C 309.015 257.769,308.582 257.953,309.305 258.676 M311.275 260.025 C 311.371 260.314,311.686 260.629,311.975 260.725 C 312.275 260.825,312.425 260.675,312.325 260.375 C 312.229 260.086,311.914 259.771,311.625 259.675 C 311.325 259.575,311.175 259.725,311.275 260.025 M242.204 261.196 C 241.574 261.854,241.173 262.506,241.312 262.646 C 241.583 262.917,244.000 260.809,244.000 260.301 C 244.000 259.692,243.321 260.030,242.204 261.196 M343.784 260.427 C 343.639 260.661,343.602 260.935,343.703 261.036 C 343.982 261.315,345.200 260.763,345.200 260.357 C 345.200 259.856,344.103 259.910,343.784 260.427 M272.000 262.200 C 272.000 262.530,272.180 262.800,272.400 262.800 C 272.620 262.800,272.800 262.530,272.800 262.200 C 272.800 261.870,272.620 261.600,272.400 261.600 C 272.180 261.600,272.000 261.870,272.000 262.200 M314.000 261.951 C 314.000 262.144,314.270 262.526,314.600 262.800 C 315.251 263.341,315.333 263.211,314.957 262.233 C 314.700 261.563,314.000 261.357,314.000 261.951 M318.060 262.268 C 317.314 263.074,317.868 263.503,318.648 262.724 C 318.994 262.378,319.124 262.002,318.938 261.889 C 318.752 261.776,318.357 261.947,318.060 262.268 M341.867 263.067 C 341.381 263.553,341.590 263.979,342.200 263.745 C 342.530 263.618,342.800 263.354,342.800 263.157 C 342.800 262.738,342.249 262.684,341.867 263.067 M339.384 266.027 C 339.239 266.261,339.216 266.549,339.333 266.667 C 339.620 266.953,340.400 266.448,340.400 265.976 C 340.400 265.465,339.709 265.499,339.384 266.027 M337.698 268.266 C 337.421 268.377,337.292 268.625,337.410 268.817 C 337.670 269.236,338.800 268.862,338.800 268.357 C 338.800 267.972,338.490 267.946,337.698 268.266 M291.675 268.825 C 291.771 269.114,292.086 269.429,292.375 269.525 C 292.675 269.625,292.825 269.475,292.725 269.175 C 292.629 268.886,292.314 268.571,292.025 268.475 C 291.725 268.375,291.575 268.525,291.675 268.825 M290.178 270.435 C 290.031 270.674,290.110 271.070,290.355 271.315 C 290.682 271.642,290.800 271.526,290.800 270.880 C 290.800 269.914,290.592 269.765,290.178 270.435 M294.475 271.225 C 294.571 271.514,294.886 271.829,295.175 271.925 C 295.475 272.025,295.625 271.875,295.525 271.575 C 295.429 271.286,295.114 270.971,294.825 270.875 C 294.525 270.775,294.375 270.925,294.475 271.225 M335.384 271.227 C 335.239 271.461,335.216 271.749,335.333 271.867 C 335.620 272.153,336.400 271.648,336.400 271.176 C 336.400 270.665,335.709 270.699,335.384 271.227 M270.400 273.800 C 270.400 274.130,270.580 274.400,270.800 274.400 C 271.020 274.400,271.200 274.130,271.200 273.800 C 271.200 273.470,271.020 273.200,270.800 273.200 C 270.580 273.200,270.400 273.470,270.400 273.800 M297.443 273.767 C 297.576 274.115,297.861 274.400,298.076 274.400 C 298.602 274.400,298.273 273.491,297.675 273.292 C 297.382 273.194,297.293 273.377,297.443 273.767 M333.200 274.000 C 332.883 274.196,332.756 274.489,332.918 274.652 C 333.081 274.814,333.423 274.737,333.680 274.480 C 334.284 273.876,333.947 273.538,333.200 274.000 M289.600 274.800 C 289.600 275.240,289.780 275.600,290.000 275.600 C 290.220 275.600,290.400 275.240,290.400 274.800 C 290.400 274.360,290.220 274.000,290.000 274.000 C 289.780 274.000,289.600 274.360,289.600 274.800 M300.000 275.577 C 300.000 275.785,300.400 276.235,300.889 276.577 C 301.647 277.109,301.673 277.200,301.065 277.200 C 300.670 277.200,300.468 277.387,300.612 277.619 C 300.792 277.910,301.025 277.911,301.372 277.623 C 301.648 277.394,301.992 277.325,302.137 277.470 C 302.873 278.206,302.268 277.098,301.454 276.221 C 300.462 275.150,300.000 274.946,300.000 275.577 M330.800 277.000 C 330.259 277.651,330.389 277.733,331.367 277.357 C 331.715 277.224,332.000 276.954,332.000 276.757 C 332.000 276.204,331.352 276.335,330.800 277.000 M288.978 278.435 C 288.831 278.674,288.910 279.070,289.155 279.315 C 289.482 279.642,289.600 279.526,289.600 278.880 C 289.600 277.914,289.392 277.765,288.978 278.435 M328.984 279.227 C 328.839 279.461,328.816 279.749,328.933 279.867 C 329.220 280.153,330.000 279.648,330.000 279.176 C 330.000 278.665,329.309 278.699,328.984 279.227 M269.200 281.800 C 269.200 282.130,269.380 282.400,269.600 282.400 C 269.820 282.400,270.000 282.130,270.000 281.800 C 270.000 281.470,269.820 281.200,269.600 281.200 C 269.380 281.200,269.200 281.470,269.200 281.800 M327.067 281.867 C 326.581 282.353,326.790 282.779,327.400 282.545 C 327.730 282.418,328.000 282.154,328.000 281.957 C 328.000 281.538,327.449 281.484,327.067 281.867 M324.584 284.827 C 324.439 285.061,324.416 285.349,324.533 285.467 C 324.820 285.753,325.600 285.248,325.600 284.776 C 325.600 284.265,324.909 284.299,324.584 284.827 M322.577 287.367 C 322.150 287.679,321.918 288.052,322.062 288.195 C 322.358 288.491,324.000 287.567,324.000 287.104 C 324.000 286.636,323.433 286.741,322.577 287.367 M268.000 289.800 C 268.000 290.130,268.180 290.400,268.400 290.400 C 268.620 290.400,268.800 290.130,268.800 289.800 C 268.800 289.470,268.620 289.200,268.400 289.200 C 268.180 289.200,268.000 289.470,268.000 289.800 M269.200 303.400 C 269.200 303.510,269.575 303.975,270.033 304.433 C 271.078 305.478,271.588 305.092,270.602 304.002 C 269.925 303.254,269.200 302.942,269.200 303.400 M347.520 328.480 C 347.893 328.853,348.107 328.853,348.480 328.480 C 348.853 328.107,348.747 328.000,348.000 328.000 C 347.253 328.000,347.147 328.107,347.520 328.480 M137.206 338.614 C 137.217 339.303,137.948 340.185,138.254 339.879 C 138.418 339.715,138.248 339.277,137.876 338.905 C 137.504 338.533,137.203 338.402,137.206 338.614 M362.757 340.756 C 362.230 341.182,361.937 341.669,362.104 341.836 C 362.272 342.004,362.785 341.738,363.244 341.244 C 364.326 340.084,363.995 339.752,362.757 340.756 M141.206 342.614 C 141.217 343.303,141.948 344.185,142.254 343.879 C 142.418 343.715,142.248 343.277,141.876 342.905 C 141.504 342.533,141.203 342.402,141.206 342.614 M359.384 343.627 C 359.239 343.861,359.216 344.149,359.333 344.267 C 359.620 344.553,360.400 344.048,360.400 343.576 C 360.400 343.065,359.709 343.099,359.384 343.627 " stroke="none" fill="#222222" fill-rule="evenodd"></path><path id="path2" d="M309.632 55.054 C 309.614 55.304,310.045 55.799,310.588 56.155 C 311.429 56.707,311.542 56.713,311.345 56.201 C 311.218 55.871,310.879 55.600,310.591 55.600 C 310.302 55.600,309.976 55.375,309.865 55.100 C 309.736 54.780,309.652 54.764,309.632 55.054 M146.400 56.400 C 146.400 56.620,146.130 56.800,145.800 56.800 C 145.470 56.800,145.200 56.986,145.200 57.214 C 145.200 57.495,145.458 57.490,146.000 57.200 C 146.712 56.819,147.121 56.000,146.600 56.000 C 146.490 56.000,146.400 56.180,146.400 56.400 M152.098 201.100 C 152.044 270.455,152.135 327.200,152.300 327.200 C 152.571 327.200,152.570 242.716,152.298 120.600 C 152.242 95.520,152.152 131.745,152.098 201.100 M189.600 120.771 C 189.600 120.975,189.285 121.224,188.900 121.324 C 188.373 121.462,188.423 121.519,189.100 121.554 C 189.654 121.582,190.000 121.369,190.000 121.000 C 190.000 120.670,189.910 120.400,189.800 120.400 C 189.690 120.400,189.600 120.567,189.600 120.771 M185.200 138.000 C 185.640 138.440,186.118 138.800,186.262 138.800 C 186.406 138.800,186.198 138.440,185.800 138.000 C 185.402 137.560,184.924 137.200,184.738 137.200 C 184.552 137.200,184.760 137.560,185.200 138.000 M310.245 168.612 C 311.024 169.801,311.192 169.855,310.923 168.828 C 310.812 168.403,310.468 167.958,310.159 167.840 C 309.719 167.671,309.738 167.839,310.245 168.612 M188.000 204.000 C 188.000 204.220,187.730 204.400,187.400 204.400 C 187.070 204.400,186.800 204.586,186.800 204.814 C 186.800 205.095,187.058 205.090,187.600 204.800 C 188.312 204.419,188.721 203.600,188.200 203.600 C 188.090 203.600,188.000 203.780,188.000 204.000 M182.667 208.100 C 182.263 208.522,182.009 208.943,182.102 209.036 C 182.195 209.129,182.599 208.843,183.000 208.400 C 183.939 207.362,183.635 207.088,182.667 208.100 M189.800 222.272 C 190.240 222.393,190.749 222.697,190.930 222.946 C 191.149 223.246,191.206 223.196,191.099 222.800 C 191.010 222.470,190.501 222.167,189.969 222.126 C 189.205 222.068,189.169 222.099,189.800 222.272 M260.806 222.700 C 260.810 223.144,260.920 223.234,261.106 222.946 C 261.268 222.697,261.760 222.403,262.200 222.293 C 262.813 222.139,262.743 222.082,261.900 222.046 C 261.099 222.013,260.802 222.190,260.806 222.700 M297.900 273.517 C 298.285 273.911,298.667 274.070,298.749 273.870 C 298.831 273.671,298.651 273.351,298.349 273.160 C 297.414 272.567,297.166 272.765,297.900 273.517 M268.800 289.767 C 268.800 290.078,268.575 290.424,268.300 290.535 C 268.001 290.656,268.082 290.750,268.500 290.768 C 268.944 290.788,269.200 290.507,269.200 290.000 C 269.200 289.560,269.110 289.200,269.000 289.200 C 268.890 289.200,268.800 289.455,268.800 289.767 M270.326 303.912 C 270.916 304.524,271.476 304.974,271.568 304.911 C 271.799 304.755,269.935 302.800,269.556 302.800 C 269.388 302.800,269.735 303.301,270.326 303.912 M359.000 343.600 C 358.602 344.040,358.394 344.400,358.538 344.400 C 358.682 344.400,359.160 344.040,359.600 343.600 C 360.040 343.160,360.248 342.800,360.062 342.800 C 359.876 342.800,359.398 343.160,359.000 343.600 " stroke="none" fill="#8c903c" fill-rule="evenodd"></path><path id="path3" d="M309.632 55.054 C 309.614 55.304,310.045 55.799,310.588 56.155 C 311.429 56.707,311.542 56.713,311.345 56.201 C 311.218 55.871,310.879 55.600,310.591 55.600 C 310.302 55.600,309.976 55.375,309.865 55.100 C 309.736 54.780,309.652 54.764,309.632 55.054 M146.400 56.400 C 146.400 56.620,146.130 56.800,145.800 56.800 C 145.470 56.800,145.200 56.986,145.200 57.214 C 145.200 57.495,145.458 57.490,146.000 57.200 C 146.712 56.819,147.121 56.000,146.600 56.000 C 146.490 56.000,146.400 56.180,146.400 56.400 M152.098 201.100 C 152.044 270.455,152.135 327.200,152.300 327.200 C 152.571 327.200,152.570 242.716,152.298 120.600 C 152.242 95.520,152.152 131.745,152.098 201.100 M189.600 120.771 C 189.600 120.975,189.285 121.224,188.900 121.324 C 188.373 121.462,188.423 121.519,189.100 121.554 C 189.654 121.582,190.000 121.369,190.000 121.000 C 190.000 120.670,189.910 120.400,189.800 120.400 C 189.690 120.400,189.600 120.567,189.600 120.771 M185.200 138.000 C 185.640 138.440,186.118 138.800,186.262 138.800 C 186.406 138.800,186.198 138.440,185.800 138.000 C 185.402 137.560,184.924 137.200,184.738 137.200 C 184.552 137.200,184.760 137.560,185.200 138.000 M310.245 168.612 C 311.024 169.801,311.192 169.855,310.923 168.828 C 310.812 168.403,310.468 167.958,310.159 167.840 C 309.719 167.671,309.738 167.839,310.245 168.612 M188.000 204.000 C 188.000 204.220,187.730 204.400,187.400 204.400 C 187.070 204.400,186.800 204.586,186.800 204.814 C 186.800 205.095,187.058 205.090,187.600 204.800 C 188.312 204.419,188.721 203.600,188.200 203.600 C 188.090 203.600,188.000 203.780,188.000 204.000 M182.667 208.100 C 182.263 208.522,182.009 208.943,182.102 209.036 C 182.195 209.129,182.599 208.843,183.000 208.400 C 183.939 207.362,183.635 207.088,182.667 208.100 M189.800 222.272 C 190.240 222.393,190.749 222.697,190.930 222.946 C 191.149 223.246,191.206 223.196,191.099 222.800 C 191.010 222.470,190.501 222.167,189.969 222.126 C 189.205 222.068,189.169 222.099,189.800 222.272 M260.806 222.700 C 260.810 223.144,260.920 223.234,261.106 222.946 C 261.268 222.697,261.760 222.403,262.200 222.293 C 262.813 222.139,262.743 222.082,261.900 222.046 C 261.099 222.013,260.802 222.190,260.806 222.700 M297.900 273.517 C 298.285 273.911,298.667 274.070,298.749 273.870 C 298.831 273.671,298.651 273.351,298.349 273.160 C 297.414 272.567,297.166 272.765,297.900 273.517 M268.800 289.767 C 268.800 290.078,268.575 290.424,268.300 290.535 C 268.001 290.656,268.082 290.750,268.500 290.768 C 268.944 290.788,269.200 290.507,269.200 290.000 C 269.200 289.560,269.110 289.200,269.000 289.200 C 268.890 289.200,268.800 289.455,268.800 289.767 M270.326 303.912 C 270.916 304.524,271.476 304.974,271.568 304.911 C 271.799 304.755,269.935 302.800,269.556 302.800 C 269.388 302.800,269.735 303.301,270.326 303.912 M359.000 343.600 C 358.602 344.040,358.394 344.400,358.538 344.400 C 358.682 344.400,359.160 344.040,359.600 343.600 C 360.040 343.160,360.248 342.800,360.062 342.800 C 359.876 342.800,359.398 343.160,359.000 343.600 " stroke="none" fill="#8c903c" fill-rule="evenodd"></path><path id="path4" d="M309.632 55.054 C 309.614 55.304,310.045 55.799,310.588 56.155 C 311.429 56.707,311.542 56.713,311.345 56.201 C 311.218 55.871,310.879 55.600,310.591 55.600 C 310.302 55.600,309.976 55.375,309.865 55.100 C 309.736 54.780,309.652 54.764,309.632 55.054 M146.400 56.400 C 146.400 56.620,146.130 56.800,145.800 56.800 C 145.470 56.800,145.200 56.986,145.200 57.214 C 145.200 57.495,145.458 57.490,146.000 57.200 C 146.712 56.819,147.121 56.000,146.600 56.000 C 146.490 56.000,146.400 56.180,146.400 56.400 M152.098 201.100 C 152.044 270.455,152.135 327.200,152.300 327.200 C 152.571 327.200,152.570 242.716,152.298 120.600 C 152.242 95.520,152.152 131.745,152.098 201.100 M189.600 120.771 C 189.600 120.975,189.285 121.224,188.900 121.324 C 188.373 121.462,188.423 121.519,189.100 121.554 C 189.654 121.582,190.000 121.369,190.000 121.000 C 190.000 120.670,189.910 120.400,189.800 120.400 C 189.690 120.400,189.600 120.567,189.600 120.771 M185.200 138.000 C 185.640 138.440,186.118 138.800,186.262 138.800 C 186.406 138.800,186.198 138.440,185.800 138.000 C 185.402 137.560,184.924 137.200,184.738 137.200 C 184.552 137.200,184.760 137.560,185.200 138.000 M310.245 168.612 C 311.024 169.801,311.192 169.855,310.923 168.828 C 310.812 168.403,310.468 167.958,310.159 167.840 C 309.719 167.671,309.738 167.839,310.245 168.612 M188.000 204.000 C 188.000 204.220,187.730 204.400,187.400 204.400 C 187.070 204.400,186.800 204.586,186.800 204.814 C 186.800 205.095,187.058 205.090,187.600 204.800 C 188.312 204.419,188.721 203.600,188.200 203.600 C 188.090 203.600,188.000 203.780,188.000 204.000 M182.667 208.100 C 182.263 208.522,182.009 208.943,182.102 209.036 C 182.195 209.129,182.599 208.843,183.000 208.400 C 183.939 207.362,183.635 207.088,182.667 208.100 M189.800 222.272 C 190.240 222.393,190.749 222.697,190.930 222.946 C 191.149 223.246,191.206 223.196,191.099 222.800 C 191.010 222.470,190.501 222.167,189.969 222.126 C 189.205 222.068,189.169 222.099,189.800 222.272 M260.806 222.700 C 260.810 223.144,260.920 223.234,261.106 222.946 C 261.268 222.697,261.760 222.403,262.200 222.293 C 262.813 222.139,262.743 222.082,261.900 222.046 C 261.099 222.013,260.802 222.190,260.806 222.700 M297.900 273.517 C 298.285 273.911,298.667 274.070,298.749 273.870 C 298.831 273.671,298.651 273.351,298.349 273.160 C 297.414 272.567,297.166 272.765,297.900 273.517 M268.800 289.767 C 268.800 290.078,268.575 290.424,268.300 290.535 C 268.001 290.656,268.082 290.750,268.500 290.768 C 268.944 290.788,269.200 290.507,269.200 290.000 C 269.200 289.560,269.110 289.200,269.000 289.200 C 268.890 289.200,268.800 289.455,268.800 289.767 M270.326 303.912 C 270.916 304.524,271.476 304.974,271.568 304.911 C 271.799 304.755,269.935 302.800,269.556 302.800 C 269.388 302.800,269.735 303.301,270.326 303.912 M359.000 343.600 C 358.602 344.040,358.394 344.400,358.538 344.400 C 358.682 344.400,359.160 344.040,359.600 343.600 C 360.040 343.160,360.248 342.800,360.062 342.800 C 359.876 342.800,359.398 343.160,359.000 343.600 " stroke="none" fill="#8c903c" fill-rule="evenodd"></path></g></svg>